<?xml version="1.0" encoding="UTF-8"?>
<svg id="Layer_2" data-name="Layer 2" xmlns="http://www.w3.org/2000/svg" viewBox="0 0 84.01 76.77">
  <defs>
    <style>
      .cls-1 {
        fill: #ed2224;
      }
    </style>
  </defs>
  <g id="Layer_1-2" data-name="Layer 1">
    <path class="cls-1" d="M1.02,72.69c-1.32-1.84-.73-3.63.68-5.46,3.94-5.11,7.79-10.29,11.67-15.44.41-.55.8-1.13,1.19-1.7,2.84-4.16,2.78-4.06-1.57-6.58-3.28-1.9-6.38-4.09-9.58-6.13-1.9-1.21-2.66-3.16-3.21-5.15-.57-2.04.07-3.01,2.2-3.47,3.86-.85,7.79-.6,11.7-.69,2.76-.06,5.52-.15,8.28-.24,1.4-.04,2.26-.59,2.74-2.08,2.35-7.35,5.03-14.6,7.02-22.07.81-3.03,1.27-3.46,4.11-3.65,2.33-.15,3.64.74,4.56,3.33,1.53,4.35,2.44,8.87,3.43,13.36.4,1.8.88,3.59,1.11,5.41.23,1.8.93,2.29,2.75,1.89,5.18-1.14,10.26-2.62,15.33-4.18,3.52-1.08,6.97-2.37,10.5-3.43,1.75-.53,3.59-.83,5.41-1.05,3.41-.4,5.99,1.17,3.99,5.3-1.09,2.27-2.48,3.9-4.66,5.28-8.95,5.66-17.74,11.58-26.61,17.36-1.04.68-1.39,1.45-1.07,2.6,1.2,4.43,1.85,9.02,3.93,13.2.62,1.23,1.11,2.54,1.55,3.84.95,2.8.71,3.43-1.77,5.43-.35.29-.64.65-.93,1-1.87,2.2-2.21,2.25-4.21.18-1.04-1.07-1.93-2.28-2.87-3.43-3.19-3.89-7.36-6.59-11.38-9.49-1.13-.81-2.07-.65-3.12.15-2.1,1.62-4.33,3.07-6.36,4.76-6.03,5.01-12.34,9.64-18.77,14.11-2.52,1.76-3.68,1.52-5.19-1.17-.28-.5-.48-1.05-.82-1.79h-.01Z"/>
  </g>
</svg>