<?xml version="1.0" encoding="UTF-8"?>
<svg id="Layer_2" data-name="Layer 2" xmlns="http://www.w3.org/2000/svg" viewBox="0 0 848.39 307.96">
  <defs>
    <style>
      .cls-1 {
        fill: #262626;
      }

      .cls-2 {
        fill: #e81d25;
      }
    </style>
  </defs>
  <g id="Layer_1-2" data-name="Layer 1">
    <g id="Logo">
      <g>
        <path class="cls-1" d="M254.41,292.64c2.72,4.02,2.25,7.91.16,11.95-1.47,2.84-2.8,3.94-5.75,3.1-12.44-3.52-25.41-4.22-37.89-7.38-2.34-.59-4.63-1.43-6.95-2.13-10.06-3.01-15.01-10.12-16.35-20.21-1.08-8.11-1.71-16.24-2.14-24.41-1.37-26.11-5.5-51.74-14.13-76.54-4.73-13.59-9.47-27.19-13.93-40.87-2.07-6.33-5.9-11.18-10.83-15.38-2.53-2.17-4.96-2.82-8.17-.86-8.35,5.08-8.3,3.34-8.07,13.63.4,17.72,1.92,35.34,5.74,52.68.98,4.43.22,8.37-1.72,12.3-1.02,2.06-2.52,3.26-4.8,3.74-4.8,1.01-9.65,1.05-14.49.73-3.22-.21-5.62-2.21-7.26-4.92-1.32-2.2-2.58-4.43-3.41-6.92-1.63-4.88-4.73-8.67-8.79-11.85-8.59-6.72-17.26-13.37-25.17-20.9-1.49-1.41-3.22-2.25-5.04-3-3.09-1.27-7.92,1.51-7.91,4.88.01,5.29-.12,10.59.27,15.9.55,7.55,1.29,15.2.4,22.71-1.05,8.92-5.25,12.62-13.47,13.26-7.41.58-14.84.25-22.2-.88-7.14-1.09-10.98-6.99-9.01-13.87,3.12-10.86,4.2-21.97,4.54-33.22.32-10.29,1.43-20.54,1.21-30.87-.19-8.83-1.21-17.51-3.45-26.04-2.31-8.8-4.42-17.63-6.04-26.57-.5-2.71-1.45-5.19-2.86-7.59-1.92-3.27-3.58-6.68-5.25-10.08C.64,60.96-.06,58.78,0,56.45c.08-2.79,1.08-4.12,3.8-4.88,1.45-.41,3-.99,4.44-.85,8.47.86,16.97-.51,25.42.3,5.91.56,11.81.42,17.72.48,1.36.01,2.75-.07,4.08.16,4.12.7,5.62,2.64,5.72,6.79.08,3.14-.89,5.97-2.16,8.74-.57,1.26-1.14,2.42-.15,3.81,4.36,6.13,6.19,13.47,9.43,20.14,3.18,6.55,6.56,12.99,10.31,19.23.22.37.46.8,1.41.75,1.16-10.83,2.89-21.68,1.79-32.71-.28-2.72-1.04-5.32-2.61-7.65-1.01-1.5-1.93-3.09-2.68-4.74-2.01-4.38-1.38-7.39,2.35-10.51,1.96-1.65,4.08-3.17,6.31-4.46,16.51-9.54,31.07-21.62,45.18-34.33,4.72-4.25,9.47-8.51,14.89-11.92,3.65-2.29,7.61-3.77,11.78-4.61,4.68-.94,6.99,1.6,5.7,6.23-.6,2.19-1.48,4.3-2.27,6.43-2.11,5.69-2.29,11.49-1.57,17.46.43,3.59.31,7.27.22,10.9-.09,3.68.52,7.19,1.49,10.74,6.39,23.3,15.61,45.55,24.88,67.8,14.74,35.39,29.64,70.73,42.41,106.9,4.53,12.84,8.79,25.78,13.17,38.68,2.34,6.91,5.15,13.6,9.05,19.81,1.53,2.44,2.68,5.12,4.3,7.49h.02Z"/>
        <path class="cls-1" d="M369.44,91.99c8.89.51,14.61,5.77,19,12.89.87,1.4,1.45,3.01,1.99,4.58,1.12,3.23,3.02,5.9,5.47,8.24,7,6.69,13.6,13.8,20.89,20.19,3.38,2.96,5.57,6.78,7.03,10.99,1.53,4.41.36,6.29-4.2,6.85-3.21.39-6.36-.09-9.46-.8-4.87-1.12-9.67-2.94-14.52-3.64-9.03-1.31-17.66-4.24-26.62-5.67-2.99-.48-5.92-1.3-8.85-2.07-1.16-.3-2.52-.61-3.3-1.41-2.9-2.96-6.69-3.73-10.4-3.89-11.76-.5-21.91-5.56-32.14-10.54-1.86-.9-3.53-3.14-6.04-.85-2.29,2.09-2.99,4.55-2.22,7.37.72,2.67.79,5.35,1,8.08.53,6.61-2.29,11.46-7.38,15.19-6.87,5.05-13.08,10.75-18.64,17.23-1.94,2.26-4.57,3.97-7.01,5.75-3.65,2.65-5.21,6.59-6.71,10.54-.68,1.8-.29,3.59,1.23,4.98,1.01.92,1.97,1.89,3.2,3.08,11.16,9.93,22.91,19.65,35.87,27.85,7.43,4.7,14.57,9.81,20.3,16.62,2.78,3.3,4.77,7,6.01,11.09,1.28,4.25.44,7.98-2.69,11.31-4.2,4.47-9.16,7.95-14.17,11.33-8.17,5.49-16.51,10.73-24.81,16.01-3.33,2.11-6.73,4.07-10.76,4.63-5.6.77-8.31-.67-10.3-5.83-13.77-35.64-26.78-71.56-39.02-107.76-10.01-29.58-18.79-59.57-29.57-88.89-4.16-11.29-9.19-22.06-16.38-31.79-1.94-2.63-4.32-4.62-6.96-6.35-1.15-.76-2.27-1.5-3.22-2.49-3.71-3.84-2.3-8.73,2.9-9.97,2.75-.66,5.42-.21,8.02.84,6.04,2.47,11.82,5.44,17.39,8.83,1.68,1.02,3.4,1.99,5.06,3.04,9.67,6.12,19.98,10.79,31.08,13.59,3,.75,5.47,2.59,8.26,3.71,15.8,6.34,31.87,11.85,48.99,13.13,12.99.97,26.02,1.42,39.03,2.13,10.89.6,21.79,1.23,32.68,1.85h0ZM265.61,133.66c4.49-10.85,14.42-11.06,24.21-12.68-3.11-2.36-5.8-3.66-8.71-4.38-12.48-3.11-24.82-6.63-36.56-12-.82-.37-1.66-.76-3,.17,7.81,9.59,13.67,20.72,24.07,28.89h0Z"/>
        <path class="cls-1" d="M512.79,111.36c-3.01,2.71-4.95,6.01-5.92,10-1.69,6.92-3.32,13.83-4.09,20.93-.27,2.51.22,4.73,1.38,6.98,3.13,6.09,6.95,11.74,10.64,17.47,13.39,20.77,26.7,41.58,38.21,63.5,4.58,8.73,10.66,16.56,17.53,23.68,5.06,5.24,10.21,10.39,15.71,15.17,2.46,2.14,4.14,4.84,5.36,7.8,1.54,3.7.77,5.7-2.82,7.31-2.76,1.24-5.6,2.45-8.71,2.28-9.89-.54-19.22,1.98-28.46,5.09-10.35,3.49-20.45,7.63-30.6,11.63-1.83.73-3.76,1.19-5.59,1.88-2.11.79-3.81.13-5.45-1.2-3.73-3.04-5.41-8.13-3.54-12.63,3.14-7.56,6.72-14.93,9.89-22.47,3.3-7.83,6.04-15.86,7.16-24.35.33-2.47.3-4.79-.8-7.09-4.98-10.39-9.94-20.79-14.86-31.22-1.76-3.72-3.88-7.18-6.39-10.45-3.88-5.05-7.53-10.28-11.36-15.36-2.79-3.69-6.15-6.62-10.75-7.98-2.83-.84-5.35-.44-7.84.97-4.77,2.7-8.93,6.27-13.34,9.46-1.73,1.25-2.58,3.39-3.38,5.33-4.34,10.49-6.58,21.45-6.23,32.78.19,6.17,1.4,12.31,2.07,18.47.75,6.96.96,13.85-1.82,20.57-2.49,6.03-6.59,10.01-12.82,11.92-6.87,2.1-13.97,2.63-21.05,3.33-17.35,1.73-34.61,4.1-51.49,8.56-7.02,1.86-13.89,4.32-20.8,6.58-3.47,1.13-7,1.96-10.61,2.47-6.93.99-10.04-4.4-11.36-9.35-.51-1.91.69-3.13,2-4.25,8.75-7.5,17.11-15.43,25.58-23.23,11.25-10.37,22.62-20.62,33.99-30.88,10.92-9.85,21.97-19.54,32.82-29.47,10.18-9.32,20.27-18.75,29.16-29.36,1.07-1.27,1.99-2.67,2.93-4.04,3.49-5.04,3.66-10.22,1.51-15.96-2.36-6.33-5.46-12.09-9.73-17.32-5.4-6.6-9.23-14.24-13.66-21.47-2.72-4.45-5.9-8.37-10.43-11.19-2.27-1.41-4.39-1.87-6.83-.81-1.8.78-3.75,1.36-5.36,2.44-2.15,1.43-3.8.82-5.14-.85-2.55-3.17-4.23-6.52-2.41-10.86,1.87-4.46,3.95-8.87,5.19-13.58.49-1.84,1.72-2.71,3.59-2.94,2.68-.34,5.3-.29,8.02-.15,11.09.58,22.16.51,32.12-5.7,17.55-10.94,36.87-18.39,55.27-27.65,20.22-10.17,41.54-17.69,62.23-26.72,2.49-1.09,4.96-2.3,7.29-3.7,6.44-3.89,13.02-4.13,20.08-1.76,6.82,2.3,9.73,7.29,10.69,13.86.28,1.92.05,3.93.05,5.9.7,12.23-5.64,20.95-14.05,28.79-13.02,12.12-27.17,22.75-41.68,32.99-11.02,7.77-21.09,16.81-31.11,25.83h0ZM470.2,101.86c22.87-9.79,43.17-23.74,62.66-38.95,2.88-2.24,5.07-5.21,7.23-8.12,3.28-4.43,1.47-6.74-3.03-7.74-4.03-.89-8.11-.68-12.14.42-5.14,1.41-9.91,3.64-14.59,6.16-17.72,9.54-34.06,21.48-52.5,29.73-4.36,1.95-5.87,6-6.55,10.26-.58,3.62,1.88,6.15,4.04,8.73,1.61,1.92,3.46,2.22,5.7,1.77,1.49-.2,3.02-.25,4.48-.62,1.61-.4,3.18-.99,4.71-1.64h0Z"/>
        <path class="cls-1" d="M845.53,80.79c3,2.68,3.46,5.74,2.22,9.46-1.85,5.56-5.7,9.64-9.73,13.53-12.86,12.45-25.81,24.8-38.77,37.15-13.18,12.57-25.85,25.65-38.43,38.8-9.96,10.41-19.82,20.91-29.67,31.43-11.71,12.51-23.26,25.16-35.05,37.59-11.79,12.43-23.7,24.77-37.33,35.28-4.58,3.53-9.39,6.65-14.63,9.15-12.04,5.75-18.66-.43-21.28-11.94-.68-2.99-.35-6.09.17-9.06,1.68-9.57.94-18.99-.9-28.47-2.48-12.79-3.79-25.79-6.62-38.53-.92-4.15-1.84-8.36-4.05-12.03-2.72-4.54-5.49-9.12-11.82-9.42-2.56-.12-6.07-5.32-5.89-7.88.07-1.02.59-1.72,1.47-2.11.69-.3,1.42-.6,2.15-.64,6.62-.39,12.04-3.87,17.57-6.93,7.17-3.96,14.16-8.22,21.24-12.34,3.69-2.15,7.61-3.76,11.77-4.75,1.46-.35,2.98-.62,4.47-.68,5.1-.2,8.02,1.79,9.47,6.69,2.49,8.43,2.57,17.04,1.48,25.69-1.72,13.57-5.15,26.79-8.16,40.09-1.47,6.51-2.7,13.06-3.76,19.64-.29,1.76-.29,3.51.18,5.67,2.71-1.34,4.46-3.16,6.28-4.91,13.42-12.98,25.71-27.02,38.13-40.94,18.78-21.04,37.52-42.11,55.13-64.16,7.48-9.37,14.92-18.76,20.85-29.23,1.35-2.39,2.49-4.86,3.32-7.46,1.23-3.83.62-4.82-3.48-5.4-5.78-.81-11.51-.12-17.17,1.07-8.16,1.7-16.14,3.81-23.69,7.67-7.15,3.65-15.06,5.63-22.78,7.77-10.71,2.96-20.86,7.32-31.15,11.33-29.24,11.4-58.08,23.76-86.69,36.67-9.39,4.24-18.9,8.24-29.09,10.3-4.04.82-8.1,1.04-12.2.71-6.93-.55-12.07-6.76-11.37-13.78.5-5.03,1.86-9.83,4.14-14.34,10.82-21.44,24.68-40.71,41.73-57.6,9.43-9.34,20.64-16.37,32.1-22.99,28.19-16.3,57.68-29.65,88.64-39.76,8.07-2.63,15.97-5.77,24.42-7.1,3.57-.56,6.92-.14,10.16,1.46,6.61,3.25,8.14,10.16,3.44,15.83-.77.93-1.65,1.84-2.66,2.47-4.32,2.71-7.49,6.52-10.64,10.44-2.56,3.18-5.58,5.99-8.45,8.91-2.25,2.29-4.23,4.76-5.82,7.55-.76,1.34-1.17,2.66-.78,4.31,1.19,5.04-.49,8.92-4.81,11.48-9.41,5.56-19.12,10.54-29.22,14.72-9.72,4.03-19.01,8.74-26.67,16.17-1.31,1.27-2.7,2.42-3.6,4.05-.88,1.6-2.29,2.13-3.82,1.23-3.67-2.14-7.3-4.29-8.82-8.73-1.51-4.39-1.29-6.09,2.18-9.26,4.86-4.43,9.1-9.32,11.94-15.32.55-1.18,1.64-2.29.2-3.65-1.39-1.32-2.55-.37-3.68.28-14.07,8.07-28.36,15.82-40.85,26.34-1.73,1.46-3.41,2.95-4.72,4.82,1.3,1.4,2.87,1.16,4.33,1.35,4.69.59,9.3,1.49,13.43,3.95,1.5.9,3.06,1.15,4.77,1.17,6.36.06,12.72.4,19.03,1.2,1.54.2,3-.12,4.5-.4,14.01-2.67,27.59-7.18,41.57-9.92,14.09-2.77,27.13-8.66,40.54-13.37,8-2.81,14.61-8.59,21.23-13.91,6.62-5.31,13.07-10.83,19.57-16.31,4.86-4.1,10.23-6.93,16.68-7.67,3.88-.44,7.55.4,11.23,1.13,12.93,2.56,24.03,9.03,34.59,16.58,4.2,3.01,8.06,6.43,11.91,9.87h.01Z"/>
      </g>
      <path class="cls-2" d="M295.08,203.11c-.3-2.25,1.06-3.55,3.17-4.51,5.87-2.67,11.7-5.44,17.54-8.17.63-.29,1.24-.62,1.85-.94,4.46-2.34,4.36-2.28,1.69-6.55-2.01-3.21-3.72-6.61-5.59-9.91-1.11-1.96-.87-4.04-.42-6.06.45-2.07,1.47-2.62,3.57-2.04,3.8,1.06,7.16,3.12,10.66,4.88,2.47,1.24,4.95,2.45,7.43,3.67,1.25.62,2.28.54,3.4-.55,5.52-5.4,11.29-10.54,16.55-16.21,2.13-2.3,2.74-2.46,5.34-1.29,2.13.96,2.87,2.36,2.46,5.08-.69,4.56-2,8.98-3.23,13.41-.49,1.77-.91,3.58-1.55,5.3-.64,1.7-.25,2.46,1.54,2.96,5.11,1.42,10.29,2.5,15.5,3.49,3.62.69,7.27,1.17,10.88,1.89,1.79.36,3.56.95,5.27,1.61,3.2,1.24,4.74,3.84,1.04,6.56-2.03,1.49-4.02,2.29-6.59,2.48-10.56.8-21.09,1.91-31.64,2.86-1.24.11-1.9.63-2.17,1.79-1.02,4.48-2.6,8.84-2.71,13.5-.03,1.38-.21,2.76-.43,4.12-.47,2.92-.98,3.36-4.11,3.97-.44.09-.87.28-1.29.45-2.68,1.07-3,.95-3.8-1.82-.42-1.43-.64-2.91-.93-4.38-.99-4.93-3.41-9.27-5.61-13.71-.62-1.25-1.52-1.55-2.82-1.33-2.61.45-5.26.68-7.85,1.23-7.67,1.6-15.42,2.73-23.19,3.67-3.05.37-3.96-.38-4.03-3.47-.02-.57.06-1.15.11-1.97h-.01Z"/>
    </g>
  </g>
</svg>